<?xml version="1.0" encoding="UTF-8"?>
<svg width="18px" height="48px" viewBox="0 0 18 48" version="1.1" xmlns="http://www.w3.org/2000/svg" xmlns:xlink="http://www.w3.org/1999/xlink">
    <!-- Generator: Sketch 50.2 (55047) - http://www.bohemiancoding.com/sketch -->
    <title>Group</title>
    <desc>Created with Sketch.</desc>
    <defs></defs>
    <g id="Platform" stroke="none" stroke-width="1" fill="none" fill-rule="evenodd">
        <g id="orca-Platform" transform="translate(-619.000000, -1843.000000)" stroke="#D3D7E1" stroke-width="2">
            <g id="Group" transform="translate(628.000000, 1867.500000) scale(1, -1) rotate(-345.000000) translate(-628.000000, -1867.500000) translate(619.000000, 1845.000000)">
                <path d="M11.8707346,17.8399846 C11.8707346,21.1184077 9.21342692,23.7757154 5.93500385,23.7757154 C2.65738846,23.7757154 8.07692308e-05,21.1184077 8.07692308e-05,17.8399846 C8.07692308e-05,14.5615615 2.65738846,11.9042538 5.93500385,11.9042538 C9.21342692,11.9042538 11.8707346,14.5615615 11.8707346,17.8399846 Z" id="Stroke-3"></path>
                <path d="M17.6063078,41.0363331 C17.6063078,43.2188834 15.8376754,44.9907739 13.6554904,44.9907739 C11.47494,44.9907739 9.70630769,43.2188834 9.70630769,41.0363331 C9.70630769,38.8537828 11.47494,37.0818923 13.6554904,37.0818923 C15.8376754,37.0818923 17.6063078,38.8537828 17.6063078,41.0363331 Z" id="Stroke-5"></path>
                <path d="M11.5575923,1.66602692 C11.5575923,2.58598846 10.8112846,3.33229615 9.89132308,3.33229615 C8.97136154,3.33229615 8.22586154,2.58598846 8.22586154,1.66602692 C8.22586154,0.746065385 8.97136154,-0.000242307692 9.89132308,-0.000242307692 C10.8112846,-0.000242307692 11.5575923,0.746065385 11.5575923,1.66602692 Z" id="Stroke-7"></path>
            </g>
        </g>
    </g>
</svg>