<?xml version="1.0" encoding="UTF-8"?>
<svg width="23px" height="41px" viewBox="0 0 23 41" version="1.1" xmlns="http://www.w3.org/2000/svg" xmlns:xlink="http://www.w3.org/1999/xlink">
    <!-- Generator: Sketch 50.2 (55047) - http://www.bohemiancoding.com/sketch -->
    <title>Group</title>
    <desc>Created with Sketch.</desc>
    <defs></defs>
    <g id="Platform" stroke="none" stroke-width="1" fill="none" fill-rule="evenodd">
        <g id="orca-Platform" transform="translate(-809.000000, -2313.000000)" stroke="#D3D7E1" stroke-width="2">
            <g id="Group" transform="translate(810.000000, 2314.000000)">
                <path d="M16.7063077,34.057725 C16.7063077,36.4131625 14.8074231,38.32335 12.4659231,38.32335 C10.1244231,38.32335 8.22553846,36.4131625 8.22553846,34.057725 C8.22553846,31.7022875 10.1244231,29.7921 12.4659231,29.7921 C14.8074231,29.7921 16.7063077,31.7022875 16.7063077,34.057725 Z" id="Stroke-1"></path>
                <path d="M11.8707346,17.946175 C11.8707346,21.2441125 9.21342692,23.9172375 5.93500385,23.9172375 C2.65738846,23.9172375 8.07692308e-05,21.2441125 8.07692308e-05,17.946175 C8.07692308e-05,14.6482375 2.65738846,11.9751125 5.93500385,11.9751125 C9.21342692,11.9751125 11.8707346,14.6482375 11.8707346,17.946175 Z" id="Stroke-3"></path>
                <path d="M20.6098846,21.1592875 C20.6098846,22.2431625 19.7359615,23.1231 18.6576923,23.1231 C17.5802308,23.1231 16.7063077,22.2431625 16.7063077,21.1592875 C16.7063077,20.0754125 17.5802308,19.195475 18.6576923,19.195475 C19.7359615,19.195475 20.6098846,20.0754125 20.6098846,21.1592875 Z" id="Stroke-5"></path>
                <path d="M11.5575923,1.67594375 C11.5575923,2.60138125 10.8112846,3.35213125 9.89132308,3.35213125 C8.97136154,3.35213125 8.22586154,2.60138125 8.22586154,1.67594375 C8.22586154,0.75050625 8.97136154,-0.00024375 9.89132308,-0.00024375 C10.8112846,-0.00024375 11.5575923,0.75050625 11.5575923,1.67594375 Z" id="Stroke-7"></path>
            </g>
        </g>
    </g>
</svg>