<?xml version="1.0" encoding="UTF-8"?>
<svg width="76px" height="79px" viewBox="0 0 76 79" version="1.1" xmlns="http://www.w3.org/2000/svg" xmlns:xlink="http://www.w3.org/1999/xlink">
    <!-- Generator: Sketch 50 (54983) - http://www.bohemiancoding.com/sketch -->
    <title>Page 1</title>
    <desc>Created with Sketch.</desc>
    <defs></defs>
    <g id="Page-1" stroke="none" stroke-width="1" fill="none" fill-rule="evenodd">
        <g id="orca-facelift-europa" transform="translate(-857.000000, -852.000000)">
            <g id="all-finance" transform="translate(203.000000, 829.000000)">
                <g id="Page-1" transform="translate(656.000000, 23.000000)">
                    <path d="M24.7767137,63.3006684 C24.7767137,63.3006684 1.54738196,51.1223766 0,60.2552643 L28.644323,75.0500769 C29.8027456,75.6485188 31.1556478,75.7648825 32.4037002,75.3742329 L52.392831,69.1038921 C53.8556565,68.6434244 55.4520812,68.8877881 56.7052069,69.7605158 L67.1039519,77 C67.1039519,77 74.3301411,70.4038408 72.7827591,62.7936552 L47.7168626,54.2641963 C46.5736602,53.8752091 45.3239167,53.9167676 44.2094635,54.3822224 L28.9064478,60.7639399 C28.9064478,60.7639399 28.9064478,65.837397 34.0677699,65.3303837 C39.229092,64.8233705 43.8746202,63.8076817 43.8746202,63.8076817" id="Stroke-1" stroke="#D3D7E1" stroke-width="2"></path>
                    <polygon id="Fill-3" fill="#EBEDF2" points="23 0 27 4 23 8 19 4"></polygon>
                    <polygon id="Fill-5" fill="#495EF2" points="34 32.3196055 26.6803945 25 16.6803945 27.6786641 14 37.6786641 21.3196055 45 31.3213359 42.3196055"></polygon>
                    <path d="M46,13.4990998 C46,17.0889074 43.0889074,20 39.5009002,20 C35.9110926,20 33,17.0889074 33,13.4990998 C33,9.90929234 35.9110926,7 39.5009002,7 C43.0889074,7 46,9.90929234 46,13.4990998" id="Fill-7" fill="#F9057C"></path>
                </g>
            </g>
        </g>
    </g>
</svg>