<svg xmlns="http://www.w3.org/2000/svg" viewBox="0 0 29.4 48"><defs><style>.cls-1{fill:#d3d7e1;}.cls-2{fill:#485ef2;}.cls-3{fill:#f9057c;}</style></defs><title>Asset 1</title><g id="Layer_2" data-name="Layer 2"><g id="Layer_1-2" data-name="Layer 1"><path class="cls-1" d="M4.52,48a4.52,4.52,0,1,1,4.36-5.71l.1.37H24.07V28.21h.27v-.37h1.19l.05.37h.13V43.4a.92.92,0,0,1-.22.65.84.84,0,0,1-.64.25H9l-.1.37A4.54,4.54,0,0,1,4.52,48Zm0-7.51a3,3,0,1,0,3,3A3,3,0,0,0,4.5,40.49Z"/><path class="cls-1" d="M14.77,27.78l0-.32V18.31l-.38-.1a4.53,4.53,0,1,1,2.39,0l-.37.1V27.4l-.08.38Zm.78-17a3,3,0,1,0,3,3A3,3,0,0,0,15.55,10.75Z"/><circle class="cls-2" cx="24.88" cy="25.03" r="3.33"/><circle class="cls-3" cx="15.55" cy="30.83" r="3.33"/><path class="cls-1" d="M24.89,0a4.58,4.58,0,0,0-4.08,2.51l-.14.24h-16a1.66,1.66,0,0,0-.51.09.89.89,0,0,0-.26.21.84.84,0,0,0-.19.57V19.79h0l.06.4H5.1L5,19.79h.31V4.39h15l0,.47A4.52,4.52,0,1,0,24.89,0Zm0,7.45a3,3,0,1,1,3-3A3,3,0,0,1,24.91,7.45Z"/><circle class="cls-2" cx="4.5" cy="22.93" r="3.33"/></g></g></svg>