<?xml version="1.0" encoding="UTF-8"?>
<svg width="38px" height="41px" viewBox="0 0 38 41" version="1.1" xmlns="http://www.w3.org/2000/svg" xmlns:xlink="http://www.w3.org/1999/xlink">
    <!-- Generator: Sketch 50.2 (55047) - http://www.bohemiancoding.com/sketch -->
    <title>Group Copy</title>
    <desc>Created with Sketch.</desc>
    <defs></defs>
    <g id="Platform" stroke="none" stroke-width="1" fill="none" fill-rule="evenodd">
        <g id="orca-Platform" transform="translate(-565.000000, -2963.000000)" stroke="#D3D7E1" stroke-width="2">
            <g id="Group-Copy" transform="translate(566.000000, 2964.000000)">
                <path d="M8.50114286,15.5071714 C8.50114286,13.6497429 10.0062857,12.1446 11.8637143,12.1446 C14.5174286,12.1446 16.6688571,14.2951714 16.6688571,16.9488857 C16.6688571,20.7391714 13.5951429,23.8120286 9.80485714,23.8120286 C4.39028571,23.8120286 0,19.4226 0,14.0071714 C0,6.27145714 6.27085714,-0.000257142857 14.0074286,-0.000257142857 C25.0585714,-0.000257142857 34.0174286,8.9586 34.0174286,20.0097429 C34.0174286,20.0097429 24.0068571,26.2960286 16.2925714,19.4388857" id="Stroke-1"></path>
                <polyline id="Stroke-3" points="27.1958571 22.2948 27.1958571 31.4388 31.1858571 31.4388"></polyline>
                <path d="M35.4714,31.4388 C35.4714,32.6225143 34.5122571,33.5816571 33.3285429,33.5816571 C32.1448286,33.5816571 31.1856857,32.6225143 31.1856857,31.4388 C31.1856857,30.2550857 32.1448286,29.2959429 33.3285429,29.2959429 C34.5122571,29.2959429 35.4714,30.2550857 35.4714,31.4388 Z" id="Stroke-5"></path>
                <path d="M24.4821429,36.6888 C24.4821429,37.8725143 23.5221429,38.8316571 22.3392857,38.8316571 C21.1555714,38.8316571 20.1964286,37.8725143 20.1964286,36.6888 C20.1964286,35.5050857 21.1555714,34.5459429 22.3392857,34.5459429 C23.5221429,34.5459429 24.4821429,35.5050857 24.4821429,36.6888 Z" id="Stroke-7"></path>
                <path d="M22.3392857,22.4245714 L22.3392857,34.5462857" id="Stroke-9"></path>
            </g>
        </g>
    </g>
</svg>