<?xml version="1.0" encoding="UTF-8"?>
<svg width="51px" height="17px" viewBox="0 0 51 17" version="1.1" xmlns="http://www.w3.org/2000/svg" xmlns:xlink="http://www.w3.org/1999/xlink">
    <!-- Generator: Sketch 50.2 (55047) - http://www.bohemiancoding.com/sketch -->
    <title>Group Copy 2</title>
    <desc>Created with Sketch.</desc>
    <defs></defs>
    <g id="Platform" stroke="none" stroke-width="1" fill="none" fill-rule="evenodd">
        <g id="orca-Platform" transform="translate(-1222.000000, -2796.000000)" stroke="#D3D7E1" stroke-width="2">
            <g id="Group-Copy-2" transform="translate(1223.000000, 2797.000000)">
                <path d="M49.2825753,2.85458267 L46.7500912,1.3508382 C44.3313283,-0.0837987468 41.3220898,-0.0837987468 38.9033269,1.3508382 L36.369968,2.85458267 L33.8374839,4.35832713 C31.418721,5.79296408 28.4086077,5.79296408 25.9907196,4.35832713 L23.4573606,2.85458267 L20.9248765,1.3508382 C18.5061136,-0.0837987468 15.4968751,-0.0837987468 13.0781122,1.3508382 L10.5456281,2.85458267" id="Stroke-1"></path>
                <path d="M36.3468738,12.0820101 L33.8135149,13.5848798 C31.3956268,15.0203915 28.3855135,15.0203915 25.9676254,13.5848798 L23.4342665,12.0820101 L20.9017824,10.5782656 C18.4830195,9.14362867 15.473781,9.14362867 13.0550181,10.5782656 L10.5225339,12.0820101 L7.98917502,13.5848798 C5.57041211,15.0203915 2.56117362,15.0203915 0.142410714,13.5848798" id="Stroke-5"></path>
            </g>
        </g>
    </g>
</svg>